
<svg version="1.0" xmlns="http://www.w3.org/2000/svg"
 width="6000.000000pt" height="4000.000000pt" viewBox="0 0 1688.000000 1200.000000"
 preserveAspectRatio="xMidYMid meet">

<g transform="translate(0.000000,1536.000000) scale(0.100000,-0.100000)"
fill="#FFFFFF" stroke="000000">
<path d="M14418 14058 c-34 -63 -35 -63 -89 -71 -30 -5 -69 -10 -86 -13 -24
-4 -33 -10 -33 -24 0 -12 -7 -20 -16 -20 -22 0 -77 -57 -68 -71 4 -8 -1 -9
-17 -4 -30 9 -79 43 -79 55 0 4 -30 45 -66 89 -62 77 -84 91 -84 53 0 -9 -18
-46 -40 -81 l-41 -63 -77 6 c-42 3 -93 6 -112 6 -30 0 -47 12 -112 74 l-78 75
-74 -84 c-41 -46 -94 -119 -117 -161 l-42 -77 -71 6 c-39 4 -98 9 -131 13
l-60 6 6 -123 c3 -68 4 -126 2 -128 -2 -3 -74 -6 -162 -9 l-158 -5 -20 74
c-19 71 -21 74 -51 77 -27 3 -32 0 -38 -25 -12 -56 -16 -64 -42 -88 -36 -34
-82 -32 -160 5 -35 17 -70 30 -77 30 -7 0 -15 6 -18 14 -6 14 -119 103 -143
113 -11 4 -14 -13 -14 -95 l0 -100 -144 -1 c-79 -1 -163 1 -186 5 l-43 7 7 58
c3 33 2 59 -3 59 -18 0 -147 -147 -171 -195 -14 -28 -31 -49 -38 -47 -7 1 -11
-1 -11 -5 5 -31 -3 -36 -21 -13 -11 14 -20 20 -20 14 0 -16 -65 -111 -104
-152 -46 -50 -61 -55 -97 -36 -17 8 -54 22 -81 29 -62 16 -63 15 -55 -116 l6
-99 -189 3 -190 2 0 -30 c0 -38 27 -89 88 -168 l47 -60 -52 -54 c-49 -50 -53
-57 -53 -103 l0 -49 -52 -5 c-41 -4 -200 -13 -270 -16 -17 0 -6 -55 27 -141
19 -50 35 -94 35 -99 0 -4 -33 -22 -72 -40 -40 -19 -74 -37 -76 -41 -2 -5 -11
-4 -20 1 -9 5 -50 16 -90 24 l-73 14 1 -177 c3 -295 6 -271 -35 -271 -19 0
-67 -5 -108 -11 l-74 -11 -18 -147 c-16 -132 -21 -151 -52 -201 -18 -31 -33
-59 -33 -64 0 -4 -19 -37 -42 -72 l-43 -65 -86 7 c-47 3 -96 3 -107 -1 -30 -9
-28 -46 3 -113 14 -30 25 -62 25 -71 0 -9 -17 -33 -37 -53 -39 -37 -199 -148
-215 -148 -4 0 -8 -4 -8 -10 0 -5 11 -10 25 -10 13 0 48 -5 76 -11 43 -9 50
-14 38 -23 -33 -25 -269 -287 -283 -314 -14 -26 -14 -31 -1 -42 8 -7 12 -17 8
-23 -3 -5 -2 -7 4 -4 12 8 48 -30 56 -58 3 -11 7 -109 9 -219 l3 -198 -40 -34
-40 -33 -1 -148 c-1 -81 -5 -156 -9 -165 -4 -11 2 -36 16 -65 36 -74 39 -202
5 -248 -11 -16 -13 -8 -10 61 l3 79 -9 -82 c-9 -82 -25 -128 -54 -152 -26 -21
-18 -34 40 -71 70 -44 125 -104 159 -170 23 -46 26 -60 21 -119 -3 -36 -8
-134 -12 -217 l-6 -151 64 -46 c36 -25 93 -75 129 -111 62 -64 64 -68 64 -117
0 -48 -2 -53 -32 -67 l-32 -15 -3 -96 c-2 -53 -1 -100 1 -105 2 -5 68 -6 151
-2 82 4 150 4 153 -1 3 -4 11 -70 18 -146 l12 -137 36 -2 c20 -1 49 -1 64 0
28 1 28 0 21 -46 -8 -59 -10 -61 -50 -78 -19 -8 -34 -18 -34 -23 0 -5 20 -27
44 -49 38 -35 95 -62 132 -62 6 0 14 -20 17 -45 9 -64 37 -113 98 -170 30 -28
53 -53 51 -58 -1 -4 1 -6 5 -5 10 4 85 -53 79 -59 -2 -2 7 -15 20 -28 27 -28
34 -69 20 -137 -5 -27 -4 -28 32 -28 29 0 51 -10 91 -39 68 -51 106 -57 205
-31 127 32 119 38 111 -90 l-7 -110 56 0 c65 0 145 28 198 71 20 16 38 29 40
29 2 0 3 -42 3 -92 l0 -93 78 3 77 2 0 -159 0 -159 -125 -7 -125 -7 0 -139 0
-139 -135 0 -135 0 0 40 c0 47 -12 50 -45 12 -13 -15 -58 -42 -103 -61 -45
-19 -79 -38 -77 -42 3 -4 17 -10 32 -13 16 -4 46 -20 68 -35 22 -16 49 -31 60
-35 14 -4 25 -21 33 -51 8 -31 19 -48 34 -54 20 -7 20 -9 -16 -42 -64 -59
-131 -89 -197 -89 -55 0 -59 -2 -65 -26 -11 -45 14 -103 67 -155 27 -27 55
-49 61 -49 7 0 -8 -13 -33 -29 -24 -16 -75 -58 -113 -93 l-69 -65 -61 29 c-34
16 -69 33 -78 38 -30 17 -36 11 -43 -43 -13 -105 -22 -120 -106 -187 -44 -35
-79 -68 -79 -72 0 -5 45 -56 100 -112 l101 -103 -48 -49 c-27 -27 -70 -69 -96
-93 l-49 -43 91 -93 c69 -70 90 -97 84 -110 -5 -14 -3 -16 8 -10 8 5 -2 -10
-21 -34 -39 -50 -140 -128 -177 -137 -27 -7 -30 -6 185 -105 83 -38 112 -59
81 -59 -32 0 -152 -115 -205 -198 -41 -63 -42 -75 -9 -117 31 -42 135 -252
135 -275 0 -22 17 -36 53 -45 27 -7 43 -22 127 -117 23 -26 51 -48 63 -50 12
-2 55 -43 102 -96 44 -51 94 -101 110 -110 17 -9 32 -21 34 -25 2 -5 164 -5
361 -1 l358 7 7 -63 c7 -58 1 -187 -11 -274 -4 -24 -19 -54 -42 -80 -20 -22
-33 -38 -29 -35 9 7 79 -65 115 -117 l21 -31 -31 -47 c-19 -29 -32 -65 -36
-94 -6 -57 -13 -68 -52 -76 -17 -3 -30 -11 -29 -18 0 -7 25 -33 55 -57 33 -25
53 -48 50 -57 -3 -8 0 -11 10 -7 30 11 12 -15 -46 -66 l-59 -53 82 -91 c138
-153 135 -149 141 -135 3 7 3 2 1 -12 -5 -25 21 -62 148 -211 l37 -44 43 46
c23 25 58 65 77 89 l35 43 74 -99 c40 -54 80 -102 89 -106 10 -4 134 -7 277
-7 l260 -1 87 88 c72 72 89 85 94 70 3 -10 2 -23 -2 -30 -4 -7 -4 -10 1 -6 4
4 25 -20 47 -53 22 -32 43 -59 48 -59 5 0 37 35 72 78 34 42 85 100 112 127
88 89 146 155 146 166 0 6 -14 -1 -31 -16 -44 -36 -49 -23 -6 14 43 39 117
183 124 243 5 45 5 46 -32 64 -40 18 -168 160 -162 178 2 6 17 15 33 19 48 14
97 41 108 60 9 15 2 26 -44 71 -54 52 -55 54 -39 75 10 13 41 26 79 35 34 8
65 17 68 20 9 9 -19 54 -70 113 -26 30 -48 63 -48 74 0 18 8 19 123 19 67 0
151 5 187 11 81 13 73 13 150 1 67 -10 120 -29 120 -43 0 -4 -22 -37 -49 -73
-49 -65 -67 -110 -57 -143 8 -23 61 -59 120 -82 l46 -17 -39 -40 -39 -39 19
-60 c10 -33 22 -88 25 -122 l7 -63 -82 0 c-69 0 -83 -3 -88 -17 -4 -10 -7 -64
-8 -121 0 -115 -2 -111 95 -182 66 -49 112 -99 106 -116 -4 -11 -2 -15 8 -11
8 3 22 -3 31 -13 13 -14 13 -19 3 -23 -9 -4 -8 -6 4 -6 14 -1 47 -32 161 -152
9 -11 17 -26 17 -34 0 -13 34 -15 243 -15 l243 0 94 90 c52 49 98 90 103 90
10 0 93 -65 149 -119 27 -25 39 -31 42 -20 33 102 39 134 40 196 1 40 4 73 8
73 4 0 13 -19 19 -42 10 -41 16 -46 127 -112 64 -37 121 -68 126 -68 14 1 47
108 53 176 6 55 8 59 41 73 19 8 83 58 143 111 l107 97 -70 32 -70 33 23 32
c13 18 57 68 98 110 41 43 73 79 70 81 -2 2 -22 17 -44 32 -63 46 -164 135
-175 155 -7 14 -2 28 24 61 19 24 48 53 65 64 38 25 39 50 4 101 -21 31 -28
56 -33 124 -4 47 -13 105 -19 128 -9 32 -9 57 -2 93 6 28 11 69 11 93 0 23 7
51 16 62 8 10 13 13 9 7 -4 -9 1 -13 14 -13 12 0 21 -7 21 -15 0 -21 38 -19
43 3 4 13 5 12 6 -4 1 -18 8 -23 40 -26 22 -2 37 1 34 6 -4 5 11 6 33 3 23 -4
31 -3 20 2 -14 5 -16 10 -8 15 7 4 18 4 25 0 9 -6 9 -5 0 7 -9 11 -2 24 34 64
24 28 37 38 28 23 -22 -35 -12 -65 21 -65 18 0 22 3 15 10 -17 17 -13 27 10
27 16 0 19 -4 14 -20 -5 -14 -2 -20 9 -20 11 0 16 9 16 28 -1 31 -23 65 -35
54 -5 -4 -5 -1 0 7 6 11 14 6 36 -19 16 -18 26 -36 24 -40 -3 -5 -1 -11 5 -15
15 -9 12 -28 -2 -19 -7 4 -10 3 -5 -1 4 -5 21 -9 37 -10 17 -1 38 -9 47 -17
10 -9 35 -32 56 -52 22 -20 42 -36 45 -36 4 1 27 27 52 58 140 178 175 206
226 179 16 -8 40 -27 53 -41 14 -14 32 -26 40 -26 9 0 36 30 61 67 25 36 62
85 84 109 33 38 37 48 32 77 -8 44 -1 49 40 30 19 -9 37 -13 41 -9 4 4 7 34 8
67 l0 59 98 96 c53 53 97 100 97 103 0 4 -20 22 -43 40 -24 18 -91 83 -150
145 l-106 113 35 11 c54 16 234 133 234 151 0 9 -29 51 -65 93 -35 42 -61 78
-57 80 8 3 38 45 89 123 49 75 46 90 -42 174 l-76 72 23 32 c37 52 77 94 120
123 37 26 39 29 21 41 -80 58 -196 170 -215 209 -9 16 -18 55 -21 88 -3 32 -8
61 -11 63 -6 7 -51 -28 -120 -91 l-49 -45 -88 77 c-49 42 -102 87 -119 98
l-30 22 65 42 c72 47 101 85 111 148 l7 42 -82 0 c-91 0 -109 6 -163 57 -31
30 -35 39 -25 54 8 13 8 24 -2 43 -8 14 -18 23 -22 20 -4 -2 -10 0 -14 5 -7
12 58 31 108 31 42 0 127 36 127 54 0 6 -21 24 -46 40 -44 28 -57 48 -93 139
-19 49 -32 36 -46 -47 -4 -25 -9 -35 -14 -27 -6 9 -44 12 -135 12 -70 -1 -131
-3 -135 -6 -9 -5 -21 125 -21 223 l0 62 -79 0 c-43 0 -93 3 -111 7 l-33 6 6
141 c4 78 9 150 12 161 5 18 13 20 85 17 43 -2 87 1 98 7 12 6 28 41 46 103
33 109 46 132 86 153 28 14 33 14 60 -1 16 -10 26 -22 23 -27 -3 -6 -2 -7 4
-4 12 8 45 -15 112 -78 29 -27 57 -50 63 -50 5 0 33 29 62 65 29 36 58 64 65
62 6 -1 10 1 10 5 -3 19 2 27 10 14 5 -8 16 -11 30 -6 20 6 20 25 0 25 -6 0
-7 -5 -3 -12 4 -7 3 -8 -5 -4 -6 4 -9 12 -5 17 9 15 84 51 144 69 l55 16 6 55
c7 67 8 68 93 167 91 107 99 123 80 162 -41 81 -41 82 55 138 82 49 135 71
206 87 29 7 27 8 -35 31 -35 14 -67 30 -71 36 -8 12 10 37 108 158 30 36 57
70 61 75 4 6 25 34 46 63 21 29 47 57 57 63 25 13 24 20 -10 109 -16 41 -32
91 -36 110 -6 35 -6 35 54 64 33 15 62 34 65 41 2 7 24 15 48 19 66 10 77 21
34 36 -20 6 -36 16 -36 21 0 18 22 53 52 85 l30 32 -38 53 c-20 30 -53 76 -73
103 l-35 49 79 74 c44 41 92 82 108 91 15 9 27 19 27 22 0 4 -34 37 -75 74
l-75 67 90 87 c50 48 90 93 90 99 0 16 -73 122 -117 170 l-38 41 31 16 c18 8
49 36 70 62 22 26 57 68 80 92 l41 45 102 5 c98 5 102 6 97 25 -3 12 0 27 6
34 17 20 -9 25 -126 21 -58 -2 -106 1 -106 5 0 5 36 45 80 90 l81 82 -88 81
c-53 49 -88 90 -89 103 -1 11 2 18 7 16 13 -8 41 26 34 43 -3 8 3 25 13 36 11
12 27 33 36 47 l16 26 -57 43 c-76 57 -203 183 -203 202 0 8 23 37 51 64 27
27 55 57 60 66 13 24 -12 70 -58 105 -20 15 -53 43 -74 62 l-39 33 23 17 c12
10 70 46 130 81 59 35 107 67 107 71 0 4 -40 37 -89 73 -49 36 -98 78 -110 94
-21 31 -21 36 5 144 l6 26 -89 6 c-184 13 -275 24 -284 33 -6 6 17 53 66 131
41 67 75 125 74 129 0 4 -21 22 -47 38 -65 42 -73 62 -70 176 l3 97 -50 6
c-27 3 -92 6 -142 6 l-93 0 0 164 0 163 41 6 c24 3 56 18 78 35 49 39 75 52
106 52 51 0 93 26 103 64 6 20 8 43 6 53 -6 23 229 247 281 268 34 15 45 37
24 50 -24 15 -29 55 -12 88 19 36 32 272 16 288 -13 13 -193 -1 -193 -15 0 -8
-136 -11 -475 -11 -392 0 -474 2 -470 13 3 8 5 103 5 212 l0 198 451 3 451 4
19 25 c11 14 26 32 33 40 18 22 90 80 99 80 4 0 7 7 7 15 0 12 -21 15 -120 16
-66 1 -125 2 -130 3 -6 0 -47 39 -91 86 -128 135 -322 330 -328 330 -3 0 -52
-46 -109 -102 l-104 -103 -41 50 c-23 27 -67 77 -99 110 l-56 59 -26 -58 c-41
-93 -78 -133 -131 -140 -41 -7 -47 -12 -79 -64 -27 -45 -51 -68 -105 -102
l-71 -45 6 -42 c3 -22 3 -54 0 -70 -7 -29 -9 -30 -114 -46 -123 -20 -141 -20
-162 -7 -13 9 -13 11 -1 19 12 8 8 13 -20 28 -18 10 -82 65 -141 122 -60 58
-114 106 -120 107 -10 1 -12 -30 -10 -134 l4 -135 -54 6 c-29 4 -90 7 -135 7
l-83 0 -1 98 c0 53 -4 118 -8 145 -9 55 -4 61 54 71 104 17 103 8 11 99 -46
45 -95 98 -110 117 l-26 35 -48 -50 c-26 -28 -75 -81 -110 -118 -35 -37 -67
-65 -72 -62 -5 3 -44 61 -86 130 -43 69 -84 125 -90 125 -7 0 -28 -28 -46 -62z
m466 -594 c14 -5 16 -33 16 -210 l0 -204 225 0 225 0 0 -235 0 -235 205 0 205
0 0 223 0 224 107 6 c58 4 153 7 210 7 l103 0 0 -445 0 -445 -223 0 -223 0 2
-32 c1 -18 2 -127 3 -242 l1 -209 228 7 229 7 6 -222 c4 -122 10 -225 13 -228
3 -3 104 -7 225 -9 l219 -3 2 -267 3 -267 226 -3 226 -2 6 -467 c4 -256 7
-583 7 -725 l0 -259 -230 2 -230 2 0 248 0 249 -230 0 -230 0 0 230 c0 197 -2
230 -15 231 -8 1 -19 3 -25 4 -5 1 -111 3 -235 4 l-225 1 0 240 0 240 -295 0
-295 0 0 -240 0 -240 -454 0 -454 0 5 243 6 243 -213 -4 -212 -5 3 139 c2 77
3 187 1 247 l-2 107 -366 0 -367 0 5 239 5 239 -113 7 c-62 4 -156 4 -209 0
l-95 -7 0 -484 0 -484 -200 0 -200 0 0 -148 c0 -82 -3 -190 -6 -240 l-7 -92
-223 0 -224 0 0 240 0 240 -229 0 -229 0 5 -222 c2 -123 6 -231 8 -240 3 -17
-33 -18 -642 -18 l-646 0 9 -377 c5 -208 9 -425 9 -483 l0 -105 -233 0 c-127
0 -232 -3 -232 -7 0 -5 -3 -8 -7 -8 -7 0 -10 855 -5 1303 l2 157 169 0 c93 0
176 3 185 6 14 5 16 38 16 258 0 138 3 261 6 274 6 22 7 22 210 22 l204 0 0
225 0 225 185 0 185 0 0 210 0 210 175 0 175 0 0 235 0 235 188 2 c158 3 187
5 188 18 1 8 2 111 3 228 l1 212 996 0 995 0 -7 215 -7 215 696 0 c382 0 702
-3 711 -6z m1804 -1836 c8 -8 15 -8 27 2 26 21 27 5 1 -19 l-23 -22 -17 26
c-17 25 -9 34 12 13z m-2907 -1195 c1 -131 1 -241 0 -245 -1 -10 -14 -9 217
-8 l192 1 0 -230 0 -231 465 0 465 0 0 228 0 227 285 0 285 0 0 -196 c0 -108
3 -211 6 -228 l7 -31 248 0 249 0 0 -199 c0 -109 3 -225 6 -257 l6 -59 217 5
c119 3 217 5 218 4 2 0 0 -226 -4 -502 l-6 -502 -219 0 -218 0 0 -405 0 -405
-207 -2 -208 -3 -3 -177 -2 -178 -111 0 -110 0 3 -111 3 -110 -2105 3 -2105 3
-3 102 -3 102 -143 -6 -144 -6 -4 23 c-3 21 -9 24 -68 27 -36 3 -67 6 -68 8
-2 2 0 10 5 18 4 9 7 79 5 156 l-3 141 -205 0 -205 0 3 233 3 232 -212 0
c-116 0 -214 3 -218 7 -3 3 -3 423 1 932 l7 925 620 1 c342 0 623 2 625 4 3 3
18 320 22 444 0 10 127 12 660 8 l660 -5 0 244 0 245 178 3 c97 1 342 4 545 5
l367 2 1 -237z m3729 -413 c0 -5 -5 -10 -11 -10 -5 0 -7 5 -4 10 3 6 8 10 11
10 2 0 4 -4 4 -10z m-1637 -3247 c-7 -2 -19 -2 -25 0 -7 3 -2 5 12 5 14 0 19
-2 13 -5z m-283 -353 c0 -5 -10 -10 -22 -10 -19 0 -20 2 -8 10 19 13 30 13 30
0z m-93 -26 c-3 -3 -12 -4 -19 -1 -8 3 -5 6 6 6 11 1 17 -2 13 -5z m-4324
-1291 l136 -6 1 -444 0 -443 -215 0 -215 0 0 -220 0 -220 -211 0 -212 0 7 363
c4 199 9 386 12 415 l6 52 178 0 177 0 7 138 c3 75 4 186 2 247 -2 60 -2 113
0 117 6 10 144 10 327 1z m4324 -9 c-3 -3 -12 -4 -19 -1 -8 3 -5 6 6 6 11 1
17 -2 13 -5z m86 -1 c-13 -2 -35 -2 -50 0 -16 2 -5 4 22 4 28 0 40 -2 28 -4z
m84 1 c-3 -3 -12 -4 -19 -1 -8 3 -5 6 6 6 11 1 17 -2 13 -5z m253 -9 c0 -9 -9
-15 -22 -14 -17 1 -19 2 -5 6 9 2 17 9 17 14 0 5 2 9 5 9 3 0 5 -7 5 -15z
m-425 -25 c-16 -11 -24 -20 -17 -20 11 0 13 -27 10 -135 -1 -74 -1 -127 2
-119 9 26 25 20 30 -12 l5 -29 28 28 c15 15 32 27 37 27 6 0 10 36 10 80 l0
80 41 0 c48 0 44 15 -7 24 -19 4 -34 12 -32 18 6 17 47 22 125 15 31 -3 40 -1
36 10 -4 9 4 13 26 13 26 0 31 -4 31 -25 0 -18 5 -25 19 -25 11 0 21 -9 25
-22 9 -36 7 -88 -4 -88 -5 0 -10 17 -10 38 0 41 -14 71 -27 58 -4 -5 -2 -11 5
-13 7 -3 12 -22 12 -44 0 -35 -3 -39 -25 -39 -22 0 -25 -4 -25 -40 0 -36 -2
-40 -25 -40 -22 0 -25 -4 -25 -39 0 -23 5 -41 13 -44 10 -4 12 3 9 24 -6 37 9
37 50 -2 22 -20 29 -32 21 -36 -15 -6 -17 -33 -3 -33 6 0 10 -7 10 -15 0 -18
20 -20 21 -2 0 10 2 10 6 0 2 -7 18 -13 34 -13 19 0 29 -5 29 -15 0 -13 27
-15 180 -15 l180 0 0 -413 0 -414 -97 -6 c-142 -10 -361 -8 -367 2 -7 11 18
33 27 24 4 -3 7 89 7 205 l0 212 -200 0 -200 0 0 420 c0 289 3 420 11 420 5 0
7 5 4 10 -4 6 6 10 22 10 l28 0 -30 -20z m168 13 c-13 -2 -33 -2 -45 0 -13 2
-3 4 22 4 25 0 35 -2 23 -4z m122 -24 c-38 -6 -63 -5 -69 1 -7 7 14 10 60 9
l69 -1 -60 -9z m-275 -46 c-4 -42 -5 -44 -8 -15 -3 30 2 62 10 62 2 0 1 -21
-2 -47z m-20 -945 c0 -19 -2 -20 -10 -8 -13 19 -13 30 0 30 6 0 10 -10 10 -22z
m-13 -80 c-3 -8 -6 -5 -6 6 -1 11 2 17 5 13 3 -3 4 -12 1 -19z m20 -85 c-2
-21 -4 -4 -4 37 0 41 2 58 4 38 2 -21 2 -55 0 -75z m-8 -122 c2 -88 -6 -54
-12 54 -3 69 -3 85 3 50 5 -27 9 -74 9 -104z m-4632 -43 c-3 -7 -5 -2 -5 12 0
14 2 19 5 13 2 -7 2 -19 0 -25z m-347 -17 c29 -34 29 -35 40 -121 l7 -65 2 71
1 71 71 7 c44 5 75 4 81 -2 21 -21 -5 -32 -75 -34 -40 -1 -56 -3 -34 -5 24 -3
37 -9 37 -19 0 -10 12 -14 40 -14 22 0 40 -5 40 -11 0 -13 -58 -69 -71 -69 -5
0 -9 -4 -9 -10 0 -6 35 -10 85 -10 l85 0 0 106 c0 67 4 103 10 99 6 -4 9 -51
7 -115 l-2 -110 -126 0 c-86 0 -129 4 -138 13 -11 10 -14 9 -18 -1 -3 -6 -10
-10 -16 -6 -7 3 -1 -4 12 -16 27 -23 21 -36 -19 -42 -14 -2 45 -3 132 -3 86 0
154 -3 151 -7 -2 -5 5 -8 17 -8 12 0 19 4 15 9 -3 5 -1 12 3 15 5 3 10 61 11
128 1 67 4 124 7 127 3 3 4 -54 2 -127 -2 -73 0 -133 4 -135 4 -1 3 -9 -2 -17
-8 -12 -44 -16 -197 -19 l-188 -3 0 176 c0 97 2 176 5 176 3 0 17 -13 30 -29z
m50 9 c0 -5 -5 -10 -11 -10 -5 0 -7 5 -4 10 3 6 8 10 11 10 2 0 4 -4 4 -10z
m4945 -132 c5 4 5 2 2 -4 -8 -15 20 -54 47 -63 11 -5 21 -14 21 -22 0 -8 3
-15 7 -17 4 -1 19 -14 32 -27 16 -16 37 -25 58 -26 18 -1 25 -3 15 -6 -34 -9
-67 7 -115 55 -48 48 -119 138 -91 115 9 -7 20 -9 24 -5z m328 -185 c-7 -2
-19 -2 -25 0 -7 3 -2 5 12 5 14 0 19 -2 13 -5z m-4158 -168 c-24 -8 -116 -12
-103 -4 7 5 36 8 63 8 28 0 46 -2 40 -4z m-1295 -132 c0 -8 -13 2 -30 20 -16
19 -30 38 -30 43 0 4 14 -5 30 -21 17 -16 30 -35 30 -42z m5400 -7 c0 -3 -4
-8 -10 -11 -5 -3 -10 -1 -10 4 0 6 5 11 10 11 6 0 10 -2 10 -4z m-30 -86 c0
-5 -4 -10 -10 -10 -5 0 -10 5 -10 10 0 6 5 10 10 10 6 0 10 -4 10 -10z m-270
-10 c0 -5 -2 -10 -4 -10 -3 0 -8 5 -11 10 -3 6 -1 10 4 10 6 0 11 -4 11 -10z
m400 -5 c20 -24 6 -28 -15 -5 -10 11 -13 20 -8 20 6 0 16 -7 23 -15z"/>
<path d="M12672 12203 l3 -48 145 -1 c80 -1 133 1 117 3 -15 2 -25 9 -22 14 4
5 -20 8 -57 7 -62 -1 -62 -1 -18 -8 l45 -7 -42 -1 c-46 -2 -55 4 -47 34 5 18
14 20 85 21 43 0 79 -3 79 -8 0 -5 8 -9 18 -9 14 0 15 2 2 10 -11 7 -2 10 33
10 46 0 47 -1 47 -30 0 -24 -5 -31 -27 -36 -46 -10 -50 -14 -13 -11 42 2 50
11 50 58 l0 36 -92 7 c-50 3 -140 6 -200 6 l-109 0 3 -47z"/>
<path d="M12898 12193 c12 -2 30 -2 40 0 9 3 -1 5 -23 4 -22 0 -30 -2 -17 -4z"/>
<path d="M11825 9113 c-4 -64 -6 -231 -3 -370 l5 -253 -252 0 -252 0 5 -327
c2 -181 7 -330 9 -333 5 -6 70 -6 601 -2 l382 2 0 700 0 700 -244 0 -244 0 -7
-117z"/>
<path d="M14978 9214 c-3 -3 -3 -167 0 -365 l5 -359 -267 0 -266 0 0 -330 0
-329 33 -6 c17 -2 241 -2 497 3 l465 7 3 693 2 692 -233 0 c-129 0 -236 -2
-239 -6z"/>
<path d="M12650 7340 l0 -200 763 2 762 3 0 195 0 195 -762 3 -763 2 0 -200z"/>
<path d="M11160 7334 c0 -8 5 -12 10 -9 6 4 8 11 5 16 -9 14 -15 11 -15 -7z"/>
<path d="M11141 7324 c0 -11 3 -14 6 -6 3 7 2 16 -1 19 -3 4 -6 -2 -5 -13z"/>
<path d="M15502 4765 c0 -35 15 -99 17 -68 1 6 9 14 19 16 13 4 12 5 -5 6 -18
1 -22 8 -26 44 l-4 42 -1 -40z"/>
<path d="M15528 4643 c7 -3 16 -2 19 1 4 3 -2 6 -13 5 -11 0 -14 -3 -6 -6z"/>
<path d="M10528 3403 c6 -2 18 -2 25 0 6 3 1 5 -13 5 -14 0 -19 -2 -12 -5z"/>
<path d="M10738 3403 c12 -2 32 -2 45 0 12 2 2 4 -23 4 -25 0 -35 -2 -22 -4z"/>
<path d="M16513 14045 c0 -8 4 -12 9 -9 5 3 6 10 3 15 -9 13 -12 11 -12 -6z"/>
<path d="M16350 13933 c0 -13 29 -38 35 -31 3 3 -4 13 -15 23 -11 10 -20 13-20 8z"/>
<path d="M10730 12836 c0 -2 8 -10 18 -17 15 -13 16 -12 3 4 -13 16 -21 21-21 13z"/>
<path d="M17486 9971 c-4 -5 -2 -12 3 -15 5 -4 12 -2 15 3 4 5 2 12 -3 15 -54 -12 2 -15 -3z"/>
<path d="M16448 6775 c-23 -13 -36 -17 -78 -24 -3 -1 1 -5 9 -10 8 -5 29 0 57
16 24 14 44 27 44 29 0 6 -2 5 -32 -11z"/>
<path d="M13736 1522 c-3 -5 1 -15 9 -22 21 -17 27 -9 10 13 -7 10 -16 14 -199z"/>
</g>
</svg>
